<?xml version="1.0" encoding="UTF-8" standalone="no"?>
<!-- Created with Inkscape (http://www.inkscape.org/) -->

<svg
   width="400"
   height="75"
   viewBox="0 0 105.83342 19.84375"
   version="1.1"
   id="svg1"
   xmlns="http://www.w3.org/2000/svg"
   xmlns:svg="http://www.w3.org/2000/svg">
  <defs
     id="defs1" />
  <g
     id="layer1">
    <path
       style="font-size:12.987px;font-family:Poppins;-inkscape-font-specification:Poppins;fill:#3a4e53;stroke-width:0.243506"
       d="m 21.974019,5.8311774 v 9.0519396 h -1.181817 v -4.103892 h -4.610385 v 4.103892 H 15 V 5.8311774 h 1.181817 v 3.9740221 h 4.610385 V 5.8311774 Z m 2.623367,0.77922 q -0.337662,0 -0.571428,-0.233766 -0.233766,-0.233766 -0.233766,-0.571428 0,-0.337662 0.233766,-0.571428 0.233766,-0.233766 0.571428,-0.233766 0.324675,0 0.545454,0.233766 0.233766,0.233766 0.233766,0.571428 0,0.337662 -0.233766,0.571428 -0.220779,0.233766 -0.545454,0.233766 z m 0.571428,1.1558431 V 14.883117 H 23.986997 V 7.7662405 Z m 4.662337,6.0259685 2.20779,-6.0259685 H 33.29868 L 30.506475,14.883117 H 29.129853 L 26.337648,7.7662405 h 1.272726 z M 40.96102,11.051952 q 0,0.337662 -0.03896,0.714285 h -5.688306 q 0.06493,1.051947 0.714285,1.649349 0.662337,0.584415 1.597401,0.584415 0.766233,0 1.272726,-0.350649 0.51948,-0.363636 0.727272,-0.961038 h 1.272726 Q 40.532449,13.714287 39.675307,14.363637 38.818165,15 37.545439,15 q -1.012986,0 -1.81818,-0.454545 -0.792207,-0.454545 -1.246752,-1.285713 -0.454545,-0.844155 -0.454545,-1.94805 0,-1.103895 0.441558,-1.9350635 0.441558,-0.831168 1.233765,-1.272726 0.805194,-0.454545 1.844154,-0.454545 1.012986,0 1.792206,0.441558 0.77922,0.441558 1.194804,1.220778 0.428571,0.7662335 0.428571,1.7402585 z m -1.220778,-0.246753 q 0,-0.675324 -0.298701,-1.1558435 -0.298701,-0.493506 -0.818181,-0.740259 -0.506493,-0.25974 -1.129869,-0.25974 -0.896103,0 -1.532466,0.571428 -0.623376,0.571428 -0.714285,1.5844145 z m 9.116888,4.168827 q -0.896103,0 -1.610388,-0.311688 -0.701298,-0.324675 -1.103895,-0.883116 -0.402597,-0.571428 -0.415584,-1.311687 h 1.259739 q 0.06494,0.636363 0.51948,1.077921 0.467532,0.428571 1.350648,0.428571 0.844155,0 1.324674,-0.415584 0.493506,-0.428571 0.493506,-1.090908 0,-0.51948 -0.285714,-0.844155 -0.285714,-0.324675 -0.714285,-0.493506 -0.428571,-0.168831 -1.155843,-0.363636 -0.896103,-0.233766 -1.441557,-0.467532 -0.532467,-0.233766 -0.922077,-0.7272725 -0.376623,-0.506493 -0.376623,-1.350648 0,-0.740259 0.376623,-1.3116871 0.376623,-0.571428 1.051947,-0.883116 0.688311,-0.311688 1.571427,-0.311688 1.272726,0 2.07792,0.636363 0.818182,0.636363 0.922078,1.6883101 h -1.298701 q -0.06493,-0.51948 -0.545454,-0.9090901 -0.480519,-0.402597 -1.272726,-0.402597 -0.740259,0 -1.207791,0.38961 -0.467532,0.3766231 -0.467532,1.0649341 0,0.493506 0.272727,0.805194 0.285714,0.311688 0.688311,0.480519 0.415584,0.155844 1.155843,0.363636 0.896103,0.2467535 1.441557,0.4935065 0.545454,0.233766 0.935065,0.740259 0.38961,0.493506 0.38961,1.350648 0,0.662337 -0.350649,1.246752 -0.350649,0.584415 -1.038961,0.948051 -0.688311,0.363636 -1.623375,0.363636 z M 56.714264,15 q -0.999999,0 -1.81818,-0.454545 -0.805194,-0.454545 -1.272726,-1.285713 -0.454545,-0.844155 -0.454545,-1.94805 0,-1.090908 0.467532,-1.9220765 0.480519,-0.844155 1.2987,-1.285713 0.818181,-0.454545 1.831167,-0.454545 1.012986,0 1.831167,0.454545 0.818181,0.441558 1.285713,1.272726 0.480519,0.8311685 0.480519,1.9350635 0,1.103895 -0.493506,1.94805 -0.480519,0.831168 -1.311687,1.285713 Q 57.72725,15 56.714264,15 Z m 0,-1.03896 q 0.636363,0 1.194804,-0.298701 0.558441,-0.298701 0.896103,-0.896103 0.350649,-0.597402 0.350649,-1.454544 0,-0.857142 -0.337662,-1.4545445 -0.337662,-0.597402 -0.883116,-0.883116 -0.545454,-0.298701 -1.181817,-0.298701 -0.64935,0 -1.194804,0.298701 -0.532467,0.285714 -0.857142,0.883116 -0.324675,0.5974025 -0.324675,1.4545445 0,0.870129 0.311688,1.467531 0.324675,0.597402 0.857142,0.896103 0.532467,0.285714 1.16883,0.285714 z M 63.10386,5.2727364 V 14.883117 H 61.922043 V 5.2727364 Z m 8.32467,2.4935041 V 14.883117 H 70.246713 V 13.83117 q -0.337662,0.545454 -0.948051,0.857142 -0.597402,0.298701 -1.324674,0.298701 -0.831168,0 -1.493505,-0.337662 -0.662337,-0.350649 -1.051947,-1.03896 -0.376623,-0.688311 -0.376623,-1.675323 V 7.7662405 h 1.16883 v 4.0129835 q 0,1.051947 0.532467,1.623375 0.532467,0.558441 1.454544,0.558441 0.948051,0 1.493505,-0.584415 0.545454,-0.584415 0.545454,-1.701297 V 7.7662405 Z m 3.441547,0.974025 v 4.1948015 q 0,0.51948 0.220779,0.740259 0.220779,0.207792 0.766233,0.207792 h 0.870129 v 0.999999 h -1.064934 q -0.987012,0 -1.480518,-0.454545 Q 73.68826,13.974027 73.68826,12.935067 V 8.7402655 H 72.766183 V 7.7662405 H 73.68826 V 5.9740344 h 1.181817 v 1.7922061 h 1.857141 v 0.974025 z m 3.896104,-2.1298681 q -0.337662,0 -0.571428,-0.233766 -0.233766,-0.233766 -0.233766,-0.571428 0,-0.337662 0.233766,-0.571428 0.233766,-0.233766 0.571428,-0.233766 0.324675,0 0.545454,0.233766 0.233766,0.233766 0.233766,0.571428 0,0.337662 -0.233766,0.571428 -0.220779,0.233766 -0.545454,0.233766 z m 0.571428,1.1558431 V 14.883117 H 78.155792 V 7.7662405 Z M 84.454494,15 q -0.999999,0 -1.81818,-0.454545 -0.805194,-0.454545 -1.272726,-1.285713 -0.454545,-0.844155 -0.454545,-1.94805 0,-1.090908 0.467532,-1.9220765 0.480519,-0.844155 1.2987,-1.285713 0.818181,-0.454545 1.831167,-0.454545 1.012986,0 1.831167,0.454545 0.818181,0.441558 1.285713,1.272726 0.480519,0.8311685 0.480519,1.9350635 0,1.103895 -0.493506,1.94805 -0.480519,0.831168 -1.311687,1.285713 Q 85.46748,15 84.454494,15 Z m 0,-1.03896 q 0.636363,0 1.194804,-0.298701 0.558441,-0.298701 0.896103,-0.896103 0.350649,-0.597402 0.350649,-1.454544 0,-0.857142 -0.337662,-1.4545445 -0.337662,-0.597402 -0.883116,-0.883116 -0.545454,-0.298701 -1.181817,-0.298701 -0.64935,0 -1.194804,0.298701 -0.532467,0.285714 -0.857142,0.883116 -0.324675,0.5974025 -0.324675,1.4545445 0,0.870129 0.311688,1.467531 0.324675,0.597402 0.857142,0.896103 0.532467,0.285714 1.16883,0.285714 z m 8.675305,-6.3246695 q 1.2987,0 2.103894,0.792207 0.805194,0.77922 0.805194,2.2597385 v 4.194801 h -1.16883 v -4.02597 q 0,-1.0649345 -0.532467,-1.6233755 -0.532467,-0.571428 -1.454544,-0.571428 -0.935064,0 -1.493505,0.584415 -0.545454,0.584415 -0.545454,1.7012975 v 3.935061 H 89.66227 V 7.7662405 h 1.181817 v 1.012986 q 0.350649,-0.545454 0.948051,-0.844155 0.610389,-0.298701 1.337661,-0.298701 z M 100.49342,15 q -0.818177,0 -1.467527,-0.272727 -0.64935,-0.285714 -1.025973,-0.77922 -0.376623,-0.506493 -0.415584,-1.155843 h 1.220778 q 0.05195,0.532467 0.493506,0.870129 0.454545,0.337662 1.18182,0.337662 0.67532,0 1.06493,-0.298701 0.38961,-0.298701 0.38961,-0.753246 0,-0.467532 -0.41558,-0.688311 -0.41559,-0.233766 -1.28572,-0.454545 -0.792203,-0.207792 -1.298696,-0.415584 -0.493506,-0.220779 -0.857142,-0.636363 -0.350649,-0.428571 -0.350649,-1.1168825 0,-0.545454 0.324675,-0.999999 0.324675,-0.454545 0.922077,-0.714285 0.597402,-0.272727 1.363635,-0.272727 1.18182,0 1.90909,0.597402 0.72727,0.597402 0.77922,1.636362 h -1.18182 q -0.039,-0.558441 -0.45454,-0.896103 -0.4026,-0.337662 -1.09091,-0.337662 -0.636364,0 -1.012987,0.272727 -0.376623,0.272727 -0.376623,0.714285 0,0.350649 0.220779,0.5844155 0.233766,0.220779 0.571428,0.363636 0.350653,0.12987 0.961033,0.298701 0.76624,0.207792 1.24676,0.415584 0.48052,0.194805 0.81818,0.597402 0.35065,0.402597 0.36363,1.051947 0,0.584415 -0.32467,1.051947 -0.32468,0.467532 -0.92208,0.740259 Q 101.25966,15 100.49342,15 Z"
       id="text1"
       aria-label="Hive Solutions" />
    <path
       style="fill:#fb7e14;fill-opacity:1;stroke:#fb7e14;stroke-width:0.146794;stroke-linejoin:round;stroke-dasharray:none;stroke-opacity:1"
       id="path5"
       d="m 3.0310889,3.15 -1.2124356,-0.7 0,-1.4 L 3.0310888,0.35000002 4.2435244,1.05 l 0,1.4 z"
       transform="matrix(1.3624566,0,0,1.3624566,1.1740549,4.7545428)" />
    <path
       style="fill:none;fill-opacity:1;stroke:#fb7e14;stroke-width:0.146794;stroke-linejoin:round;stroke-dasharray:none;stroke-opacity:1"
       id="path5-6-3"
       d="m 3.0310889,3.15 -1.2124356,-0.7 0,-1.4 L 3.0310888,0.35000002 4.2435244,1.05 l 0,1.4 z"
       transform="matrix(1.3624566,0,0,1.3624566,-0.47783617,7.6157009)" />
    <path
       style="fill:#fb7e14;fill-opacity:1;stroke:#fb7e14;stroke-width:0.146794;stroke-linejoin:round;stroke-dasharray:none;stroke-opacity:1"
       id="path5-6-3-3"
       d="m 3.0310889,3.15 -1.2124356,-0.7 0,-1.4 L 3.0310888,0.35000002 4.2435244,1.05 l 0,1.4 z"
       transform="matrix(1.3624566,0,0,1.3624566,1.1740549,10.476862)" />
    <path
       style="fill:none;stroke:#fb7e14;stroke-width:0.146794;stroke-linejoin:round;stroke-dasharray:none;stroke-opacity:1"
       id="path5-6-3-35"
       d="m 3.0310889,3.15 -1.2124356,-0.7 0,-1.4 L 3.0310888,0.35000002 4.2435244,1.05 l 0,1.4 z"
       transform="matrix(1.3624566,0,0,1.3624566,4.4778359,10.476862)" />
    <path
       style="fill:none;stroke:#fb7e14;stroke-width:0.146794;stroke-linecap:butt;stroke-linejoin:round;stroke-dasharray:none;stroke-opacity:1"
       id="path5-6-3-5"
       d="m 3.0310889,3.15 -1.2124356,-0.7 0,-1.4 L 3.0310888,0.35000002 4.2435244,1.05 l 0,1.4 z"
       transform="matrix(1.3624566,0,0,1.3624566,6.1297279,7.6157009)" />
  </g>
</svg>
