<?xml version="1.0" encoding="UTF-8" standalone="no"?>

<svg
   width="17.991667mm"
   height="2.3910606mm"
   viewBox="0 0 17.991667 2.3910606"
   version="1.1"
   id="svg1"
   xmlns="http://www.w3.org/2000/svg"
   xmlns:svg="http://www.w3.org/2000/svg">
  <defs
     id="defs1" />
  <g
     id="layer1"
     transform="translate(-68.577742,-134.05947)">
    <path
       d="m 68.577744,136.21533 h 0.235185 v -1.72469 h -0.235185 v -0.19599 H 69.2833 v 0.19599 h -0.235185 v 0.74475 h 1.058333 v -0.74475 h -0.235185 v -0.19599 h 0.705555 v 0.19599 h -0.235185 v 1.72469 h 0.235185 v 0.19599 h -0.705555 v -0.19599 h 0.235185 v -0.78395 h -1.058333 v 0.78395 H 69.2833 v 0.19599 h -0.705556 z m 2.234257,0 h 0.195988 v -1.13673 h -0.195988 v -0.19599 h 0.431173 v 1.33272 h 0.195987 v 0.19599 h -0.62716 z m 0.129352,-1.74821 q 0,-0.0823 0.04312,-0.12543 0.04704,-0.047 0.125432,-0.047 0.07448,0 0.121513,0.047 0.04704,0.0431 0.04704,0.11759 0,0.0784 -0.04704,0.12543 -0.04704,0.0431 -0.125433,0.0431 -0.07447,0 -0.121512,-0.0431 -0.04312,-0.047 -0.04312,-0.11759 z m 1.430713,1.96379 H 72.14864 L 71.693948,135.0786 H 71.51756 v -0.19599 h 0.587962 v 0.19599 h -0.172469 l 0.341019,1.05049 h 0.0078 L 72.63465,135.0786 H 72.4583 v -0.19599 h 0.587963 v 0.19599 h -0.195987 z m 1.928518,-0.31358 v 0.21167 q -0.195987,0.12151 -0.458611,0.12151 -0.30966,0 -0.486049,-0.20774 -0.172469,-0.20775 -0.172469,-0.58013 0,-0.38413 0.184228,-0.59972 0.184228,-0.21951 0.462531,-0.21951 0.227345,0 0.368457,0.18031 0.141111,0.18031 0.141111,0.51349 v 0.12151 h -0.913303 q 0.0078,0.27439 0.105834,0.42726 0.101913,0.15287 0.321419,0.16071 0.243025,0 0.446852,-0.12936 z m -0.195987,-0.64675 q 0,-0.22343 -0.08231,-0.32534 -0.08232,-0.10584 -0.231266,-0.10584 -0.145031,0 -0.243024,0.10976 -0.09799,0.10583 -0.117593,0.32142 z m 1.046574,0.97993 q -0.297901,0 -0.552685,-0.10975 v -0.43901 h 0.211667 v 0.29006 q 0.137191,0.051 0.360617,0.051 0.215587,0 0.333179,-0.098 0.121512,-0.10191 0.121512,-0.27438 0,-0.0901 -0.03528,-0.15287 -0.03136,-0.0666 -0.09015,-0.11367 -0.05488,-0.051 -0.141111,-0.0902 -0.08623,-0.0431 -0.195987,-0.0862 -0.105834,-0.0392 -0.211667,-0.0823 -0.101914,-0.047 -0.188148,-0.11367 -0.08231,-0.0666 -0.137192,-0.16855 -0.05096,-0.10191 -0.05096,-0.24302 0,-0.25479 0.188148,-0.40766 0.188148,-0.15679 0.509568,-0.15679 0.282222,0 0.517407,0.11759 v 0.43118 h -0.211667 v -0.28223 q -0.141111,-0.0588 -0.325339,-0.0588 -0.215587,0 -0.32534,0.10191 -0.109753,0.10192 -0.109753,0.24303 0,0.0862 0.03136,0.14895 0.03528,0.0588 0.09407,0.10583 0.06272,0.047 0.148951,0.0823 0.09015,0.0353 0.199907,0.0784 0.109754,0.0431 0.211667,0.0941 0.105833,0.047 0.184229,0.1176 0.08231,0.0666 0.129351,0.16855 0.05096,0.098 0.05096,0.25086 0,0.27046 -0.195988,0.43509 -0.192067,0.16071 -0.521327,0.16071 z m 2.716382,-0.23518 h 0.195988 v -1.95988 h -0.195988 v -0.19599 h 0.431173 v 2.15587 h 0.195988 v 0.19599 h -0.627161 z m 1.842288,-1.13673 h -0.195988 v -0.19599 h 0.431173 v 1.33272 h 0.195988 v 0.19599 H 79.72944 l -0.01176,-0.16855 h -0.0078 q -0.172469,0.20774 -0.435093,0.20774 -0.207747,0 -0.3175,-0.10975 -0.109753,-0.10975 -0.109753,-0.3175 v -0.94466 h -0.195987 v -0.19599 h 0.431172 v 1.10145 q 0,0.15679 0.06664,0.21559 0.07056,0.0549 0.188148,0.0549 0.227346,0 0.372377,-0.18423 z m 1.148487,1.37191 q -0.16855,0 -0.266543,-0.0862 -0.09799,-0.0902 -0.09799,-0.26262 v -1.02306 h -0.195988 v -0.19599 h 0.195988 v -0.35278 l 0.235185,-0.0431 v 0.39589 h 0.352778 v 0.19599 H 80.72898 v 0.98386 q 0,0.11367 0.04312,0.15287 0.04704,0.0392 0.121513,0.0392 0.09407,0 0.188148,-0.047 v 0.19207 q -0.105834,0.051 -0.223426,0.051 z m 0.419416,-0.23518 h 0.195988 v -1.13673 h -0.195988 v -0.19599 h 0.431173 v 1.33272 h 0.195988 v 0.19599 h -0.627161 z m 0.129352,-1.74821 q 0,-0.0823 0.04312,-0.12543 0.04704,-0.047 0.125432,-0.047 0.07448,0 0.121513,0.047 0.04704,0.0431 0.04704,0.11759 0,0.0784 -0.04704,0.12543 -0.04704,0.0431 -0.125432,0.0431 -0.07448,0 -0.121513,-0.0431 -0.04312,-0.047 -0.04312,-0.11759 z m 2.457681,1.74821 h 0.195988 v -1.13673 h -0.195988 v -0.19599 h 0.415494 l 0.01176,0.20383 h 0.0039 q 0.211667,-0.24303 0.48605,-0.24303 0.195987,0 0.286142,0.11368 0.09015,0.10975 0.09015,0.31358 v 0.94466 h 0.195987 v 0.19599 h -0.587962 v -0.19599 h 0.15679 v -0.9133 q 0,-0.15679 -0.05488,-0.20775 -0.05488,-0.0549 -0.15287,-0.0549 -0.227346,0 -0.419414,0.24303 v 0.9329 h 0.15679 v 0.19599 h -0.587963 z m 2.132345,0.23518 q -0.243024,0 -0.446852,-0.0941 v -0.3371 h 0.203828 v 0.20383 q 0.117592,0.0353 0.258703,0.0353 0.176389,0 0.246945,-0.0588 0.07447,-0.0627 0.07447,-0.17247 0,-0.10191 -0.08624,-0.16071 -0.08623,-0.0627 -0.270462,-0.12935 -0.258704,-0.0941 -0.352778,-0.19991 -0.09407,-0.10975 -0.09407,-0.25478 0,-0.19207 0.15287,-0.31358 0.15287,-0.12544 0.391975,-0.12544 0.219506,0 0.415494,0.0941 v 0.3371 h -0.203827 v -0.20775 q -0.09015,-0.0353 -0.223426,-0.0353 -0.148951,0 -0.223426,0.0627 -0.07448,0.0588 -0.07448,0.15679 0,0.098 0.0784,0.15679 0.08232,0.0549 0.254784,0.11759 0.246944,0.0862 0.356697,0.19207 0.113673,0.10583 0.113673,0.28222 0,0.20383 -0.15679,0.32926 -0.15679,0.12151 -0.415494,0.12151 z"
       id="text1"
       style="font-size:3.175px;font-family:'Slabo 27px';-inkscape-font-specification:'Slabo 27px, ';stroke-width:0.264583"
       aria-label="HiveS   luti   ns" />
    <g
       id="g2"
       transform="translate(0,-0.00930177)">
      <path
         style="fill:none;stroke:#ce6b05;stroke-width:0.123468;stroke-linecap:butt;stroke-linejoin:round;stroke-dasharray:none;stroke-opacity:1"
         id="path1"
         d="m 77.141466,135.89796 -0.558191,0.32227 -0.558191,-0.32227 v -0.64455 l 0.558191,-0.32227 0.558191,0.32227 z"
         transform="matrix(1.1338981,0,0,1.1338981,-9.9648049,-18.070266)" />
      <path
         style="fill:#491708;fill-opacity:1;stroke:#fac559;stroke-width:0.130839;stroke-linecap:butt;stroke-linejoin:round;stroke-dasharray:none;stroke-opacity:1"
         id="path1-5"
         d="m 77.141466,135.89796 -0.558191,0.32227 -0.558191,-0.32227 v -0.64455 l 0.558191,-0.32227 0.558191,0.32227 z"
         transform="matrix(0.7642975,0,0,0.7642975,18.345177,32.028515)" />
    </g>
    <g
       id="g1"
       transform="translate(0,0.02273765)">
      <path
         style="fill:none;stroke:#ce6b05;stroke-width:0.123468;stroke-linecap:butt;stroke-linejoin:round;stroke-dasharray:none;stroke-opacity:1"
         id="path1-61"
         d="m 77.141466,135.89796 -0.558191,0.32227 -0.558191,-0.32227 v -0.64455 l 0.558191,-0.32227 0.558191,0.32227 z"
         transform="matrix(1.1338981,0,0,1.1338981,-3.982242,-18.103239)" />
      <path
         style="fill:#491708;fill-opacity:1;stroke:#fac559;stroke-width:0.130839;stroke-linecap:butt;stroke-linejoin:round;stroke-dasharray:none;stroke-opacity:1"
         id="path1-5-8"
         d="m 77.141466,135.89796 -0.558191,0.32227 -0.558191,-0.32227 v -0.64455 l 0.558191,-0.32227 0.558191,0.32227 z"
         transform="matrix(0.7642975,0,0,0.7642975,24.327739,31.995542)" />
    </g>
  </g>
</svg>
