<?xml version="1.0" encoding="UTF-8" standalone="no"?>

<svg
   width="17.991667mm"
   height="2.3910606mm"
   viewBox="0 0 17.991667 2.3910606"
   id="svg1"
   xmlns="http://www.w3.org/2000/svg"
   xmlns:svg="http://www.w3.org/2000/svg">
  <defs
     id="defs1" />
  <g
     id="layer1"
     transform="translate(-68.577742,-134.05947)">
    <text
       xml:space="preserve"
       style="font-style:normal;font-variant:normal;font-weight:normal;font-stretch:normal;font-size:3.175px;font-family:'Slabo 27px';-inkscape-font-specification:'Slabo 27px, ';text-align:start;writing-mode:lr-tb;direction:ltr;text-anchor:start;fill:#000000;stroke-width:0.264583"
       x="68.460152"
       y="136.41132"
       id="text1"><tspan
         id="tspan1"
         style="stroke-width:0.264583"
         x="68.460152"
         y="136.41132">HiveS   luti   ns</tspan></text>
    <g
       id="g2"
       transform="translate(0,-0.00930177)">
      <path
         style="fill:none;stroke:#ce6b05;stroke-width:0.123468;stroke-linecap:butt;stroke-linejoin:round;stroke-dasharray:none;stroke-opacity:1"
         id="path1"
         d="m 77.141466,135.89796 -0.558191,0.32227 -0.558191,-0.32227 0,-0.64455 0.558191,-0.32227 0.558191,0.32227 z"
         transform="matrix(1.1338981,0,0,1.1338981,-9.9648049,-18.070266)" />
      <path
         style="fill:#491708;fill-opacity:1;stroke:#fac559;stroke-width:0.130839;stroke-linecap:butt;stroke-linejoin:round;stroke-dasharray:none;stroke-opacity:1"
         id="path1-5"
         d="m 77.141466,135.89796 -0.558191,0.32227 -0.558191,-0.32227 0,-0.64455 0.558191,-0.32227 0.558191,0.32227 z"
         transform="matrix(0.7642975,0,0,0.7642975,18.345177,32.028515)" />
    </g>
    <g
       id="g1"
       transform="translate(0,0.02273765)">
      <path
         style="fill:none;stroke:#ce6b05;stroke-width:0.123468;stroke-linecap:butt;stroke-linejoin:round;stroke-dasharray:none;stroke-opacity:1"
         id="path1-61"
         d="m 77.141466,135.89796 -0.558191,0.32227 -0.558191,-0.32227 0,-0.64455 0.558191,-0.32227 0.558191,0.32227 z"
         transform="matrix(1.1338981,0,0,1.1338981,-3.982242,-18.103239)" />
      <path
         style="fill:#491708;fill-opacity:1;stroke:#fac559;stroke-width:0.130839;stroke-linecap:butt;stroke-linejoin:round;stroke-dasharray:none;stroke-opacity:1"
         id="path1-5-8"
         d="m 77.141466,135.89796 -0.558191,0.32227 -0.558191,-0.32227 0,-0.64455 0.558191,-0.32227 0.558191,0.32227 z"
         transform="matrix(0.7642975,0,0,0.7642975,24.327739,31.995542)" />
    </g>
  </g>
</svg>
